# xmcd CD database file
#
# Track frame offsets:
#	150
#	29135
#	55007
#	77292
#	110415
#	138685
#
# Disc length: 2136 seconds
#
# Revision: 3
# Processed by: cddbd v1.5PL3 Copyright (c) Steve Scherf et al.
# Submitted via: CDex 1.51
#
DISCID=4a085606
DTITLE=The Michael Schenker Group - One Night At Budokan [CD1]
DYEAR=1981
DGENRE=Hard Rock
TTITLE0=Armed And Ready
TTITLE1=Cry For The Nations
TTITLE2=Attack Of The Mad Axeman
TTITLE3=But I Want More
TTITLE4=Victim Of Illusion
TTITLE5=Into The Arena
EXTD=YEAR: 1981
EXTT0=
EXTT1=
EXTT2=
EXTT3=
EXTT4=
EXTT5=
PLAYORDER=
